<?xml version="1.0" standalone="no"?>
<!DOCTYPE svg PUBLIC "-//W3C//DTD SVG 20010904//EN"
 "http://www.w3.org/TR/2001/REC-SVG-20010904/DTD/svg10.dtd">
<svg version="1.0" xmlns="http://www.w3.org/2000/svg"
 width="1600.000000pt" height="1200.000000pt" viewBox="0 0 1600.000000 1200.000000"
 preserveAspectRatio="xMidYMid meet">

<g transform="translate(0.000000,1200.000000) scale(0.100000,-0.100000)"
fill="#000000" stroke="none">
<path d="M5820 11314 c-210 -22 -369 -107 -487 -260 -46 -58 -110 -192 -129
-266 -59 -238 -60 -553 -3 -850 11 -57 11 -59 -39 -180 -88 -215 -158 -428
-223 -675 -18 -68 -35 -123 -38 -123 -3 0 -5 26 -5 57 2 57 -20 256 -30 271
-2 4 -7 28 -11 52 -8 53 -47 175 -75 233 -11 22 -20 57 -20 76 0 41 -19 138
-45 225 -90 306 -316 557 -599 666 -27 11 -53 17 -57 15 -4 -3 -9 0 -11 6 -2
5 -19 11 -38 11 -19 0 -40 5 -47 10 -6 5 -59 12 -116 14 -95 5 -106 3 -111
-13 -7 -24 -44 -203 -57 -278 -6 -33 -12 -61 -13 -62 -2 -2 -11 21 -20 51 -10
31 -22 54 -28 53 -6 -1 -13 4 -15 11 -3 6 0 12 6 12 14 0 -55 190 -78 213 -17
17 -19 17 -63 -2 -470 -201 -837 -579 -1032 -1065 -20 -48 -37 -97 -38 -109
-2 -12 -6 -26 -9 -32 -9 -14 -27 -75 -33 -105 -2 -14 -7 -36 -10 -50 -50 -214
-47 -461 10 -719 28 -126 95 -271 125 -271 8 0 8 4 0 13 -28 34 -64 196 -40
182 5 -4 62 133 64 155 0 3 12 30 27 62 14 31 29 66 33 78 4 12 42 92 86 176
64 127 138 247 284 462 6 9 17 23 25 32 8 9 31 37 50 61 62 78 243 253 322
312 183 136 346 213 529 248 180 34 330 14 489 -65 107 -54 101 -49 205 -151
145 -141 231 -300 268 -496 26 -137 28 -156 34 -339 5 -164 3 -187 -27 -365
-17 -104 -29 -197 -27 -207 3 -9 2 -18 -2 -20 -12 -5 -49 -327 -62 -536 l-12
-194 -53 7 c-96 12 -106 -5 -174 -277 -24 -98 -47 -178 -50 -178 -5 0 -21 29
-118 210 -91 172 -98 184 -136 214 -25 20 -50 30 -84 34 -93 9 -119 -20 -287
-311 -59 -102 -194 -293 -251 -354 -15 -16 -34 -37 -43 -48 -36 -44 -139 -129
-223 -186 -85 -56 -103 -64 -138 -60 -15 2 -22 4 -102 40 -55 24 -58 25 -58
11 0 -5 7 -10 15 -10 8 0 15 -4 15 -8 0 -16 178 -88 300 -121 175 -47 518 -71
725 -50 44 4 107 10 140 14 119 11 282 43 385 76 36 11 84 27 108 34 41 14 43
13 51 -8 5 -12 18 -121 30 -242 12 -121 25 -238 28 -260 5 -39 5 -40 -12 -17
-9 12 -21 20 -26 17 -5 -3 -6 0 -3 8 15 41 -207 235 -275 240 -11 1 -21 4 -21
8 0 18 -125 26 -232 14 -138 -15 -273 -84 -395 -199 -75 -71 -90 -91 -134
-183 -47 -98 -89 -229 -89 -278 0 -75 -169 -221 -282 -244 -17 -4 -34 -13 -36
-20 -4 -11 4 -13 38 -7 60 9 161 60 216 109 l46 41 -7 -55 c-25 -181 -135
-261 -273 -197 -26 11 -52 21 -59 21 -7 0 -11 3 -10 6 2 8 -64 74 -68 69 -6
-5 59 -87 68 -88 5 0 15 -7 24 -15 8 -8 19 -13 24 -10 5 4 9 2 9 -3 0 -5 17
-16 38 -24 43 -16 147 -24 138 -10 -3 5 5 8 17 7 12 -2 45 8 72 21 87 41 107
56 238 178 57 52 116 105 130 117 15 11 24 25 21 31 -4 6 -1 9 7 6 8 -3 55 23
104 57 83 58 270 156 305 161 8 1 42 8 75 16 78 19 199 14 286 -12 86 -26 109
-45 115 -95 11 -84 47 -288 91 -507 l5 -28 -351 0 c-387 0 -403 -2 -414 -57
-3 -15 1 -80 8 -143 8 -63 19 -158 25 -210 6 -52 13 -113 15 -135 3 -22 16
-132 30 -245 13 -113 36 -306 50 -430 14 -124 35 -299 46 -390 11 -91 24 -200
29 -242 18 -160 21 -186 35 -293 8 -60 19 -159 26 -220 7 -70 16 -116 26 -127
21 -23 65 -36 143 -43 36 -3 110 -10 165 -15 55 -5 158 -9 228 -10 l129 0 -21
-34 c-67 -108 -111 -489 -79 -691 17 -110 45 -151 238 -346 179 -181 218 -201
495 -263 384 -85 542 -119 565 -122 14 -2 84 -18 155 -35 130 -31 130 -31 405
-30 288 1 1125 19 1220 25 30 3 143 7 250 11 107 4 281 10 385 14 105 4 191 7
193 6 2 -2 -26 -160 -34 -188 -4 -13 -11 -16 -26 -11 -11 3 -18 2 -15 -2 3 -5
-20 -8 -51 -6 -32 2 -194 -4 -362 -12 -168 -9 -399 -21 -515 -27 -115 -6 -218
-15 -227 -20 -11 -6 -18 -21 -18 -38 0 -37 -16 -26 334 -218 115 -63 275 -152
355 -197 269 -153 304 -169 373 -171 35 -1 83 -8 107 -15 36 -9 72 -9 190 4
80 9 220 23 311 32 91 8 167 20 168 25 2 5 8 9 13 9 6 0 7 -4 4 -10 -4 -6 5
-8 22 -5 24 4 167 21 253 29 14 2 47 4 73 4 29 1 46 6 42 12 -3 5 0 7 8 4 18
-6 92 0 707 65 505 54 499 53 493 70 -4 12 -3 13 5 3 7 -11 30 -12 98 -7 49 3
100 8 114 10 14 3 54 7 90 10 36 3 81 7 100 10 39 5 210 23 280 30 25 2 88 9
140 14 52 6 122 13 155 16 406 42 425 52 491 265 20 63 42 135 50 160 23 73
80 257 114 370 18 58 36 114 40 125 4 11 40 126 80 255 90 291 91 295 144 460
24 74 48 151 54 170 6 19 31 105 57 190 26 85 47 174 47 198 1 54 -23 89 -83
120 -48 25 -30 25 -346 6 l-101 -6 49 52 c94 100 116 181 118 440 3 338 -55
465 -290 632 -36 26 -106 67 -155 90 l-89 43 -225 1 c-205 1 -484 -14 -592
-31 -119 -19 -264 -77 -802 -324 -38 -18 -164 -75 -280 -128 -116 -52 -233
-105 -261 -118 -299 -137 -391 -175 -424 -175 -34 0 -36 5 -45 103 -4 48 -16
77 -68 169 -35 61 -75 132 -89 157 -14 25 -46 83 -72 127 -35 59 -52 103 -63
162 l-17 82 36 72 c19 40 43 102 52 137 l16 64 -32 93 c-18 52 -36 94 -40 94
-4 0 -7 6 -6 13 1 33 -4 47 -18 47 -18 0 -18 -1 -4 -37 6 -15 13 -39 15 -53 3
-14 7 -32 11 -40 11 -29 17 -76 17 -136 0 -49 -6 -75 -33 -128 -19 -39 -39
-66 -48 -66 -8 0 -101 -24 -207 -54 -252 -71 -524 -134 -673 -156 -38 -5 -79
-12 -93 -15 -72 -14 -191 -14 -227 1 -64 27 -528 260 -572 288 -23 15 -55 29
-71 33 -16 3 -28 9 -25 12 4 8 -175 121 -191 121 -50 0 393 -276 631 -393 39
-20 40 -20 15 -29 -38 -14 -293 -38 -412 -38 l-107 0 -48 68 c-26 37 -51 72
-55 77 -51 66 -104 147 -119 179 -10 23 -30 120 -44 216 -15 96 -30 200 -35
230 -33 216 -77 509 -116 765 -25 165 -56 374 -70 465 -34 224 -43 335 -44
542 0 131 -3 178 -12 181 -7 3 -8 6 -3 6 6 1 10 28 8 69 -1 37 -2 129 -3 205
0 89 -4 137 -11 137 -5 0 -7 -4 -4 -10 3 -5 3 -16 -2 -22 -4 -7 -9 -65 -10
-128 -9 -462 -15 -667 -19 -678 -3 -11 -18 -12 -62 -8 -31 3 -172 9 -312 12
-227 6 -601 20 -607 23 -8 3 -1 79 17 181 14 80 16 116 9 121 -8 5 -7 8 1 11
8 2 25 80 46 208 85 523 107 647 126 713 45 165 174 353 290 423 33 20 122 66
197 101 149 69 135 67 295 43 32 -5 61 -9 65 -8 3 1 13 -2 21 -5 8 -3 83 -20
166 -37 158 -32 279 -38 347 -19 38 10 39 10 90 -44 109 -115 252 -203 412
-253 81 -25 105 -28 235 -29 168 0 241 17 370 88 84 46 217 168 204 188 -5 9
-13 5 -29 -13 -44 -51 -138 -119 -218 -156 -126 -60 -205 -76 -350 -69 -174 7
-288 49 -461 170 -64 46 -166 143 -166 160 0 6 3 7 6 4 18 -18 162 141 149
164 -4 5 -1 8 5 7 14 -3 49 76 49 112 1 32 -12 16 -32 -40 -34 -92 -100 -133
-217 -134 l-55 -1 -52 105 c-29 58 -53 112 -53 121 0 9 18 24 43 34 23 11 89
41 146 67 57 26 107 48 111 48 4 0 4 -17 -1 -37 -5 -21 -9 -45 -9 -53 0 -13 1
-13 10 0 6 10 10 11 10 3 0 -7 5 -13 12 -13 6 0 8 3 5 7 -4 3 -2 12 4 20 6 7
8 13 4 13 -4 0 -3 6 3 13 15 18 133 463 135 509 1 21 5 32 9 25 5 -7 8 -3 8
11 0 12 8 25 18 29 34 12 43 24 31 40 -10 11 -14 11 -20 1 -7 -10 -9 -10 -9 2
0 9 -16 24 -36 35 -56 30 -141 123 -173 189 -50 104 -62 209 -36 311 23 86 31
92 70 55 17 -17 34 -27 38 -24 4 4 7 0 7 -8 0 -8 56 -67 123 -131 l124 -117
18 -77 c11 -43 20 -84 21 -91 8 -44 29 -112 36 -112 4 0 5 -7 2 -15 -4 -8 -1
-15 5 -15 7 0 10 11 7 28 -2 15 -5 27 -6 27 -1 0 -3 14 -4 32 -1 17 1 30 5 28
3 -2 7 17 8 43 2 57 44 150 107 238 25 35 46 64 47 64 1 0 2 -33 3 -73 0 -39
8 -94 16 -122 22 -72 23 -227 1 -295 -9 -30 -17 -57 -17 -60 -1 -3 -5 -11 -10
-18 -4 -7 -6 -15 -3 -18 8 -8 65 111 72 151 11 68 7 168 -11 270 -27 159 1
237 126 346 32 29 56 57 53 62 -3 6 -2 7 3 4 5 -3 34 10 64 29 87 55 248 99
433 119 34 4 60 12 63 20 6 16 -52 135 -66 135 -6 0 -9 3 -9 8 3 18 -2 30 -16
36 -11 4 -10 -6 7 -52 11 -31 24 -59 27 -62 4 -3 7 -12 6 -20 0 -14 -13 -18
-130 -35 -41 -5 -87 -15 -105 -22 -8 -3 -19 -7 -25 -8 -41 -6 -221 -67 -265
-90 -18 -9 -28 -20 -24 -27 5 -8 1 -9 -10 -5 -10 4 -15 3 -11 -3 6 -9 -8 -14
-27 -11 -5 0 -8 -4 -8 -10 0 -6 9 -8 23 -4 16 5 11 -3 -20 -29 -60 -53 -146
-144 -197 -209 -25 -32 -48 -59 -52 -60 -4 -1 -8 19 -9 44 -2 25 -12 64 -24
87 -22 44 -118 125 -136 114 -6 -4 -3 -8 8 -10 9 -2 17 -8 17 -13 0 -5 7 -9
15 -9 8 0 15 -4 15 -9 0 -4 15 -25 34 -45 19 -20 32 -36 29 -36 -3 0 1 -8 10
-18 10 -10 14 -22 11 -25 -4 -4 -1 -13 5 -21 7 -8 10 -19 7 -24 -2 -4 -6 -32
-7 -60 -3 -59 -15 -57 -22 3 -6 50 -16 75 -31 75 -7 0 -6 4 3 9 9 6 10 11 2
15 -6 4 -18 23 -26 42 -8 19 -19 34 -24 34 -6 0 -11 7 -11 15 0 8 -9 19 -20
25 -11 6 -18 15 -15 20 3 6 -1 7 -11 3 -16 -6 -15 -7 2 -20 10 -7 14 -13 10
-13 -5 0 8 -20 28 -45 21 -25 35 -45 32 -45 -3 0 2 -17 11 -37 9 -21 17 -48
19 -60 10 -62 11 -73 3 -73 -4 0 -50 39 -101 88 -147 138 -200 187 -241 222
-77 66 -79 93 -31 320 14 63 22 120 19 128 -2 7 -1 11 4 8 4 -3 15 16 24 42
81 241 181 399 321 506 103 78 181 102 481 146 159 23 237 25 286 8 90 -30
426 -262 484 -333 95 -117 309 -564 282 -591 -3 -4 -39 -2 -78 5 -39 6 -128
14 -197 17 -164 7 -166 8 -192 49 -12 19 -26 33 -31 29 -5 -3 -9 -2 -8 3 3 18
-2 30 -19 49 -9 10 -25 32 -35 47 -10 15 -23 25 -29 21 -7 -4 -8 -3 -4 5 9 14
-52 93 -66 85 -5 -3 -8 0 -6 8 4 19 -46 78 -66 78 -23 0 -20 -11 12 -45 34
-39 61 -77 138 -195 35 -52 73 -111 87 -130 l24 -36 198 -12 c111 -7 209 -18
223 -25 18 -8 29 -23 34 -47 9 -43 1 -312 -12 -429 -5 -47 -10 -91 -10 -97 0
-5 -22 -18 -49 -27 -139 -51 -321 -194 -342 -271 -13 -48 -6 -234 15 -369 12
-83 12 -90 -6 -113 -26 -33 -71 -31 -150 5 -35 16 -83 32 -108 36 -68 11 -83
22 -78 56 6 36 -9 38 -22 3 -12 -30 10 -80 37 -87 57 -16 96 -18 105 -5 8 10
9 9 5 -3 -7 -21 105 -79 153 -79 65 0 129 59 146 133 7 31 -2 49 -15 29 -5 -8
-13 18 -20 65 -7 43 -14 89 -17 103 -2 14 -4 62 -5 107 -1 68 3 88 20 117 46
74 165 160 293 212 46 19 79 34 75 34 -4 0 4 11 18 25 26 27 33 41 14 29 -8
-5 -10 21 -5 92 3 55 9 155 12 224 3 69 9 152 14 185 15 92 12 126 -16 211
-36 111 -143 328 -218 442 -55 86 -164 202 -189 202 -5 0 -15 7 -23 15 -12 12
-83 60 -224 151 -94 61 -205 95 -287 87 -58 -6 -402 -63 -453 -75 -25 -6 -79
-27 -120 -46 -97 -45 -233 -179 -301 -297 -48 -82 -105 -218 -132 -315 -9 -30
-23 -80 -31 -110 -25 -89 -48 -242 -43 -286 3 -31 0 -43 -13 -52 -27 -17 -62
-87 -140 -279 -40 -98 -113 -275 -162 -393 -114 -273 -128 -316 -128 -402 0
-70 19 -209 29 -218 3 -3 7 -16 7 -30 1 -14 5 -39 9 -56 5 -22 3 -33 -7 -37
-7 -3 -47 -21 -89 -40 l-76 -35 -41 28 c-52 35 -86 63 -197 165 -126 116 -151
136 -230 190 -75 51 -164 95 -194 95 -26 0 -40 -20 -125 -183 -43 -82 -79
-147 -81 -145 -1 2 -5 71 -8 153 -7 177 -12 224 -24 236 -24 24 -159 41 -283
35 -169 -8 -268 -37 -421 -126 -85 -50 -223 -183 -284 -275 -130 -197 -180
-384 -172 -645 5 -167 25 -274 72 -384 16 -36 21 -57 13 -54 -35 13 -148 49
-185 58 -34 8 -43 16 -44 33 -4 74 -3 97 2 97 3 0 9 55 13 123 7 129 48 483
67 579 6 32 9 69 7 83 -3 14 -2 25 2 25 11 0 32 118 24 132 -4 6 -3 8 3 5 6
-4 13 12 17 38 7 52 90 398 111 465 8 25 26 83 41 130 40 131 92 273 146 405
46 112 71 151 88 140 10 -6 149 11 215 26 195 45 388 103 490 149 22 10 57 23
78 31 20 7 37 17 37 21 0 4 8 8 18 8 9 1 49 19 87 40 39 22 77 43 85 47 29 13
125 76 185 121 91 68 193 171 226 228 28 49 69 162 69 190 0 7 9 38 20 68 33
88 88 134 220 187 50 20 249 18 320 -4 61 -18 158 -82 235 -155 58 -56 75 -68
75 -52 0 22 -168 178 -253 234 -218 145 -435 216 -659 216 -64 0 -138 -7 -179
-16 -56 -13 -76 -14 -99 -4 -16 7 -34 9 -41 4 -7 -4 -10 -3 -6 3 8 13 -39 27
-55 17 -7 -4 -8 -3 -4 4 4 7 1 12 -8 12 -8 0 -22 3 -30 6 -12 5 -15 2 -11 -12
4 -12 1 -11 -6 4 -7 12 -21 23 -33 24 -37 3 -51 5 -66 11 -59 21 -288 40 -380
31z m304 -54 c31 -6 60 -9 65 -5 6 3 18 1 28 -4 10 -5 54 -19 98 -32 44 -12
86 -26 94 -29 8 -4 -24 -21 -81 -43 -235 -92 -448 -255 -651 -500 -136 -164
-295 -406 -281 -428 4 -8 3 -9 -4 -5 -7 4 -36 -43 -80 -131 -51 -100 -71 -132
-75 -118 -36 129 -45 575 -14 730 47 232 179 427 342 505 59 28 182 64 250 72
56 8 254 0 309 -12z m846 -95 l74 -18 -52 -19 c-61 -23 -135 -93 -174 -165
-14 -26 -42 -104 -62 -173 -53 -181 -64 -209 -107 -266 -21 -29 -35 -55 -31
-59 4 -5 2 -6 -3 -2 -6 3 -42 -19 -80 -50 -76 -61 -190 -138 -247 -168 -20
-10 -34 -24 -31 -29 4 -6 3 -8 -2 -4 -4 4 -47 -13 -97 -38 -228 -115 -470
-197 -688 -234 -185 -31 -190 -31 -190 -25 0 11 134 267 163 312 15 24 27 47
27 53 0 5 5 10 10 10 6 0 10 4 10 9 0 9 34 62 127 194 20 29 39 54 42 57 18
15 81 100 81 109 0 6 3 11 8 11 4 0 54 46 112 103 222 216 441 342 685 395
115 25 314 24 425 -3z m261 -95 c45 -23 79 -43 78 -45 -2 -2 -24 1 -49 5 -118
23 -248 4 -348 -50 l-54 -29 18 27 c58 92 150 147 231 137 24 -2 79 -23 124
-45z m-3357 -521 c71 -1 104 -4 99 -11 -2 -5 4 -8 14 -9 28 -1 44 -5 102 -28
29 -12 56 -20 59 -17 2 3 19 -6 37 -19 17 -14 35 -25 40 -25 23 0 205 -141
228 -178 4 -6 19 -23 32 -36 87 -87 202 -341 221 -491 l7 -50 -22 24 c-11 13
-21 28 -21 33 0 16 -151 159 -205 193 -132 85 -258 125 -419 132 -179 9 -334
-25 -506 -111 -78 -39 -194 -111 -230 -142 -8 -7 -51 -44 -95 -82 -104 -89
-322 -328 -311 -339 2 -2 -11 -18 -28 -37 -39 -42 -180 -266 -234 -371 -73
-143 -129 -270 -178 -400 -30 -80 -50 -122 -55 -113 -4 7 -16 54 -26 103 -28
139 -25 453 5 601 100 494 400 934 831 1218 110 73 273 156 305 156 14 0 17
-3 9 -8 -13 -8 -10 -19 82 -254 53 -137 72 -136 95 5 21 132 51 252 66 264 11
8 24 9 41 2 14 -5 40 -10 57 -10z m-934 -349 c0 -5 -2 -10 -4 -10 -3 0 -8 5
-11 10 -3 6 -1 10 4 10 6 0 11 -4 11 -10z m4611 -277 c-9 -16 -10 -15 -9 9 2
16 6 24 11 19 5 -5 5 -17 -2 -28z m-30 -100 c-6 -22 -9 -84 -8 -139 3 -79 9
-114 31 -170 32 -82 99 -172 163 -217 42 -30 44 -34 39 -67 -12 -74 -106 -414
-122 -437 -15 -24 -43 -39 -323 -170 -52 -24 -98 -40 -102 -36 -16 16 -49 214
-49 293 0 88 10 118 180 533 33 82 57 153 54 159 -4 6 -3 9 2 5 5 -3 18 16 28
41 11 26 32 75 48 110 15 34 28 71 28 82 0 11 5 20 12 20 6 0 9 3 5 6 -6 6 15
35 21 29 2 -2 -1 -21 -7 -42z m-2291 7 c0 -5 -2 -10 -4 -10 -3 0 -8 5 -11 10
-3 6 -1 10 4 10 6 0 11 -4 11 -10z m758 -836 c29 -4 55 -10 57 -15 3 -4 8 -70
11 -146 2 -76 7 -167 9 -203 2 -36 5 -69 5 -73 0 -5 10 -7 21 -5 21 3 63 68
163 253 58 108 61 109 121 79 55 -28 146 -86 184 -119 84 -70 195 -172 252
-231 110 -115 243 -240 287 -269 23 -15 39 -31 36 -36 -3 -5 -13 -4 -22 1 -9
6 -78 24 -152 41 -74 17 -155 36 -180 42 -62 14 -489 13 -630 -2 -221 -24
-457 -89 -619 -171 -179 -90 -397 -283 -491 -434 -29 -48 -34 -40 -61 97 -30
153 -27 378 8 507 45 170 123 311 235 427 204 211 450 293 766 257z m2802
-204 c0 -5 -5 -10 -11 -10 -5 0 -7 5 -4 10 3 6 8 10 11 10 2 0 4 -4 4 -10z
m-1640 -70 c0 -5 -2 -10 -4 -10 -3 0 -8 5 -11 10 -3 6 -1 10 4 10 6 0 11 -4
11 -10z m179 -333 c11 -21 21 -41 21 -46 0 -5 -20 -5 -44 0 -84 15 -266 84
-266 99 0 9 71 45 165 85 l50 21 26 -60 c15 -34 36 -78 48 -99z m-309 22 c0
-14 94 -54 199 -85 138 -41 330 -34 385 14 18 16 18 16 7 -5 -23 -45 -122 -98
-208 -112 -101 -16 -182 9 -286 88 -27 20 -54 35 -60 33 -7 -2 -9 -1 -5 3 4 4
-6 18 -23 32 -29 25 -37 43 -19 43 6 0 10 -5 10 -11z m-480 -140 c0 -5 -6 -9
-13 -9 -31 0 -237 -112 -286 -156 -101 -91 -197 -239 -240 -374 -20 -63 -57
-249 -82 -417 -12 -81 -13 -82 -41 -80 -15 1 -30 7 -32 14 -3 6 -20 18 -38 26
-204 88 -253 100 -408 103 l-134 3 -43 37 c-24 21 -66 54 -94 73 -30 21 -57
50 -65 69 -16 38 -16 38 71 45 75 6 278 55 286 69 4 6 11 8 17 4 19 -12 274
82 377 138 72 40 114 91 150 186 21 56 40 85 89 133 67 68 101 97 115 97 5 0
31 10 58 21 71 31 313 45 313 18z m-431 -32 c-75 -46 -157 -136 -144 -157 4
-6 1 -9 -5 -8 -6 2 -24 -28 -41 -67 -35 -82 -57 -107 -121 -144 -27 -15 -45
-31 -40 -36 4 -4 2 -5 -4 -2 -7 4 -41 -7 -78 -23 -93 -42 -203 -78 -334 -109
-62 -15 -111 -29 -108 -31 2 -3 -8 -6 -22 -6 -15 -1 -53 -3 -84 -6 -32 -2 -58
0 -58 5 0 18 86 135 144 196 179 187 433 316 766 387 58 12 119 23 135 23 l30
1 -36 -23z m-1350 -647 c23 -6 51 -8 61 -5 11 4 20 2 20 -3 0 -5 30 -19 67
-31 63 -21 171 -70 238 -108 32 -18 81 -71 72 -79 -2 -3 -17 -7 -33 -10 -16
-3 -54 -12 -84 -20 -30 -9 -72 -20 -94 -25 -46 -12 -286 -119 -376 -170 -126
-69 -165 -92 -190 -109 -14 -9 -97 -56 -185 -105 -88 -48 -189 -105 -225 -125
-36 -21 -93 -50 -127 -65 -35 -16 -63 -31 -63 -35 0 -3 -8 -6 -17 -7 -10 0
-65 -18 -123 -38 -109 -40 -180 -47 -290 -31 -48 7 -149 32 -156 39 -2 2 24
21 58 42 73 46 204 149 269 214 26 25 70 80 100 121 29 41 57 77 61 78 5 2 8
8 8 13 0 7 56 95 70 109 3 3 11 16 19 30 75 130 177 289 197 308 29 26 81 29
124 7 33 -17 40 -27 160 -245 123 -224 121 -221 143 -218 18 3 28 30 78 231
31 125 62 234 69 242 14 17 76 15 149 -5z m786 -262 c86 -17 177 -49 268 -95
77 -38 87 -46 82 -66 -6 -26 -42 -258 -57 -367 -5 -41 -13 -79 -17 -83 -5 -4
-38 8 -75 27 -38 20 -80 37 -94 38 -15 2 -32 8 -38 14 -17 15 -160 47 -184 41
-11 -3 -18 -1 -14 4 6 10 -65 14 -201 11 -133 -2 -299 -40 -435 -100 -68 -29
-250 -89 -295 -97 -22 -4 -65 -13 -95 -20 -69 -17 -97 -21 -266 -40 -146 -16
-439 -21 -430 -6 3 4 27 16 53 26 84 30 245 107 338 160 50 28 117 67 150 85
113 62 150 84 153 92 2 4 8 8 14 8 5 0 44 21 86 47 188 114 416 222 566 267
225 69 352 83 491 54z m-384 -545 c1 -44 5 -89 39 -367 12 -93 24 -174 27
-180 4 -6 6 -27 4 -48 -1 -20 2 -70 8 -110 6 -40 13 -98 16 -128 3 -30 8 -66
10 -80 2 -14 7 -47 9 -75 3 -27 15 -124 26 -215 11 -91 21 -190 22 -220 l3
-55 -162 -3 c-148 -3 -162 -2 -167 15 -8 26 -67 319 -77 383 -5 30 -16 100
-25 155 -8 55 -18 118 -20 140 -3 22 -16 126 -29 230 -13 105 -29 240 -35 300
-5 61 -13 126 -16 146 -5 31 -2 37 23 48 47 22 176 63 213 68 19 3 51 8 70 13
56 13 60 12 61 -17z m319 7 c110 -22 168 -43 245 -86 92 -51 86 -43 79 -104
-3 -30 -8 -66 -9 -80 -2 -14 -6 -37 -10 -52 -4 -14 -2 -35 4 -46 12 -23 74
-47 92 -36 8 4 9 3 5 -4 -4 -8 0 -12 11 -12 10 0 35 -5 56 -11 35 -9 38 -13
32 -37 -3 -15 -8 -45 -10 -67 -10 -84 -87 -353 -135 -475 -12 -29 -19 -62 -17
-72 3 -10 1 -15 -4 -12 -5 3 -14 -8 -20 -25 -6 -17 -29 -68 -50 -112 -22 -44
-37 -85 -33 -90 3 -5 1 -9 -4 -9 -4 0 -26 -34 -48 -75 l-39 -75 -45 0 c-25 -1
-80 -2 -123 -3 -43 -2 -80 0 -83 4 -2 4 -11 68 -19 143 -8 75 -17 151 -20 169
-3 18 -14 111 -25 207 -35 319 -61 534 -71 600 -5 36 -12 88 -14 115 -6 61
-26 223 -31 248 -3 15 7 17 90 17 55 0 137 -9 196 -20z m-1610 -224 c0 -3 -4
-8 -10 -11 -5 -3 -10 -1 -10 4 0 6 5 11 10 11 6 0 10 -2 10 -4z m446 -154 c-3
-5 29 -14 71 -20 63 -10 142 -40 163 -62 10 -11 60 -40 60 -35 0 2 27 -24 59
-59 33 -35 63 -61 66 -58 4 4 5 3 3 -3 -1 -5 9 -35 24 -65 27 -54 59 -142 54
-148 -2 -1 -32 6 -67 15 -75 21 -276 25 -324 6 -58 -22 -70 -26 -84 -29 -43
-8 -252 -126 -259 -145 -2 -5 -10 -9 -17 -9 -7 0 -27 -13 -45 -30 -18 -16 -36
-30 -42 -30 -5 0 -6 -4 -3 -10 3 -5 -1 -10 -10 -10 -19 0 -42 -17 -134 -98
-35 -32 -71 -62 -79 -68 -9 -7 -12 -16 -7 -24 5 -9 4 -11 -3 -6 -7 4 -23 -4
-37 -18 -14 -14 -34 -30 -46 -36 -11 -6 -17 -16 -13 -23 4 -7 4 -9 -1 -5 -4 4
-27 -4 -51 -18 -24 -14 -44 -23 -44 -20 0 4 11 24 25 46 24 38 52 133 59 203
2 17 6 39 9 47 3 8 19 71 36 140 39 165 87 266 165 345 113 115 249 191 375
209 44 6 83 14 87 19 10 10 16 9 10 -1z m2169 -38 c176 -4 327 -8 335 -9 17
-2 16 3 85 -475 54 -375 99 -679 170 -1165 48 -325 35 -290 200 -519 55 -76
114 -158 130 -181 17 -24 40 -55 53 -69 12 -15 22 -29 22 -33 0 -3 17 -29 38
-57 21 -28 45 -62 54 -76 9 -14 29 -39 46 -57 16 -17 32 -38 35 -47 3 -8 33
-52 66 -98 33 -46 115 -157 181 -248 65 -91 146 -201 178 -245 32 -44 114
-157 182 -252 69 -94 128 -169 131 -167 3 2 6 -2 6 -9 0 -20 156 -229 178
-238 17 -8 115 -35 303 -85 30 -8 58 -12 63 -8 5 3 9 1 9 -5 0 -5 21 -14 48
-20 140 -32 177 -46 175 -66 -6 -44 -15 -95 -19 -95 -1 0 -19 9 -38 21 -30 17
-36 18 -36 6 0 -8 14 -27 31 -41 28 -24 31 -31 25 -64 -11 -72 -38 -182 -45
-182 -5 0 -71 55 -113 96 -9 9 -22 14 -29 12 -6 -2 19 -40 59 -86 80 -93 80
-92 36 -230 -3 -10 -11 -8 -31 7 -16 11 -46 24 -68 29 -22 6 -73 19 -112 30
-40 11 -73 19 -73 18 0 -2 28 -25 63 -52 34 -26 92 -76 128 -111 l65 -63 -16
-65 c-9 -35 -19 -67 -21 -70 -3 -3 -16 6 -29 20 -13 14 -29 25 -37 25 -7 0
-13 7 -13 15 0 8 -4 15 -9 15 -4 0 -34 27 -66 59 -48 50 -91 77 -249 162 -105
56 -220 120 -255 141 -34 21 -66 38 -71 38 -4 0 -28 22 -53 49 -31 33 -65 89
-100 163 -29 62 -65 127 -79 143 -14 17 -88 113 -164 215 -150 199 -598 788
-829 1090 -507 663 -493 641 -575 915 -143 478 -258 1106 -325 1769 -16 156
-13 172 25 161 8 -2 159 -7 335 -11z m-419 -79 c9 -124 17 -196 34 -345 18
-145 26 -203 45 -325 3 -16 10 -59 15 -95 6 -36 16 -100 24 -142 l12 -77 -235
-3 c-130 -2 -248 -2 -263 0 l-27 3 40 75 c22 41 42 84 44 96 3 12 9 24 14 27
9 6 48 95 53 121 2 8 6 17 9 20 15 14 38 90 28 96 -7 4 -3 13 9 25 31 28 84
199 139 452 20 89 30 117 41 115 9 -2 16 -18 18 -43z m147 -1063 c2 -21 10
-65 16 -100 11 -62 8 -88 -9 -77 -5 3 -452 5 -994 5 l-985 1 -5 27 c-16 84
-17 149 -3 160 11 9 240 14 938 19 508 3 925 6 926 7 1 0 26 -1 56 -2 l55 -4
5 -36z m42 -207 c2 -40 88 -394 149 -609 15 -55 15 -71 -4 -278 -11 -121 -27
-238 -36 -261 -8 -23 -16 -46 -17 -52 -1 -5 -5 -12 -8 -15 -3 -3 -18 -34 -32
-70 -14 -36 -38 -90 -53 -120 -25 -51 -27 -66 -31 -215 -2 -88 -6 -165 -8
-171 -2 -7 -64 -13 -172 -17 -219 -8 -292 -27 -433 -109 -123 -71 -263 -174
-354 -259 l-65 -61 -208 1 c-204 0 -447 21 -465 39 -10 10 -18 60 -52 352 -15
118 -42 346 -61 505 -19 160 -38 313 -41 340 -3 28 -7 61 -9 75 -2 14 -11 88
-20 165 -9 77 -18 151 -21 165 -2 14 -6 50 -9 80 -5 52 -32 276 -40 330 -2 14
-7 57 -10 95 -4 39 -9 78 -11 87 -5 17 51 18 1003 15 663 -1 1008 -5 1008 -12z
m2078 -1047 c21 -25 21 -37 1 -66 -30 -43 -114 -19 -114 34 0 30 46 66 74 58
12 -3 29 -15 39 -26z m1473 -1006 c17 -42 39 -94 48 -114 l16 -38 -67 -1 c-38
-1 -84 -3 -103 -5 -19 -1 -68 -5 -109 -8 -124 -10 -226 -72 -294 -180 -44 -68
-60 -111 -55 -141 3 -13 2 -23 -2 -20 -3 2 -15 -30 -25 -71 -10 -41 -21 -77
-25 -79 -7 -4 -178 41 -420 110 -156 45 -210 69 -193 86 5 4 107 53 228 107
121 55 249 113 285 129 66 31 93 43 235 108 149 67 199 90 319 146 67 31 123
55 126 52 2 -2 18 -38 36 -81z m3336 -31 c15 -17 28 -41 28 -54 0 -26 -36
-158 -56 -204 -8 -17 -14 -35 -14 -40 0 -4 -11 -44 -25 -88 -67 -210 -166
-527 -230 -730 -25 -82 -61 -197 -80 -255 -18 -58 -40 -127 -48 -155 -22 -75
-136 -433 -155 -489 -24 -69 -76 -122 -132 -135 -25 -5 -135 -19 -245 -31
-110 -11 -261 -28 -335 -36 -74 -9 -162 -17 -195 -20 -33 -2 -91 -9 -130 -14
-38 -5 -118 -14 -177 -21 -65 -7 -108 -16 -108 -23 0 -7 -3 -7 -8 1 -5 9 -26
9 -77 3 -39 -5 -104 -11 -145 -14 -41 -4 -88 -9 -105 -11 -16 -3 -57 -7 -90
-10 -33 -3 -141 -15 -240 -26 -99 -11 -202 -23 -230 -25 -27 -2 -88 -9 -135
-15 -110 -14 -289 -30 -317 -30 -13 1 -23 -4 -23 -10 0 -5 -4 -8 -9 -4 -9 5
-157 -7 -258 -20 -29 -4 -130 -14 -298 -31 -33 -3 -67 -8 -75 -11 -8 -4 -22
-5 -32 -4 -9 1 -70 -5 -136 -14 -180 -23 -232 -7 -232 70 0 16 21 116 45 220
48 200 135 570 140 595 2 8 24 98 48 200 25 102 89 367 143 590 53 222 105
424 115 448 10 24 44 69 74 101 30 32 52 61 47 66 -4 5 -1 5 6 1 7 -4 18 -3
25 2 30 23 97 34 295 47 117 8 243 17 280 19 37 3 112 8 167 11 55 3 102 10
103 16 3 6 9 6 15 1 11 -8 104 -5 357 12 47 4 195 13 330 21 135 8 261 17 280
20 19 2 91 7 160 10 69 3 145 8 170 10 83 8 383 28 420 27 8 0 60 4 115 9 55
4 154 11 220 14 66 3 145 8 175 10 30 3 87 7 125 10 39 2 126 8 195 11 69 3
127 8 130 11 3 3 27 3 54 0 40 -3 55 -11 78 -36z m-4851 -1141 c386 -206 432
-234 529 -325 53 -49 108 -100 124 -113 15 -13 26 -25 24 -27 -1 -1 -88 -6
-193 -9 -104 -3 -242 -8 -305 -11 -63 -3 -191 -7 -285 -11 -93 -3 -196 -7
-228 -9 -52 -4 -58 -2 -52 13 82 207 148 420 172 562 l17 96 65 -66 c38 -37
95 -80 132 -100z m701 -146 c21 -15 38 -33 38 -40 0 -22 -12 -16 -59 26 -49
45 -36 53 21 14z m-97 -631 c-2 -10 -12 -52 -22 -93 l-18 -75 -247 -15 c-136
-9 -249 -18 -253 -21 -3 -3 87 -54 199 -113 113 -59 211 -113 219 -119 10 -8
13 -24 10 -51 l-5 -38 -44 5 c-30 3 -110 40 -256 117 -266 141 -614 328 -652
351 l-28 17 63 6 c35 3 240 13 454 21 215 9 406 17 425 19 19 1 63 3 97 4 54
2 61 0 58 -15z m-1089 -74 c32 -17 64 -35 69 -39 6 -4 51 -28 100 -55 50 -26
113 -60 140 -75 28 -15 79 -43 115 -62 36 -20 149 -81 252 -137 111 -60 208
-106 240 -113 29 -6 54 -12 54 -12 1 -1 5 -12 9 -25 7 -24 7 -24 -45 -18 -48
6 -84 22 -237 108 -18 10 -63 35 -100 55 -37 20 -72 40 -78 44 -5 4 -86 49
-180 100 -93 51 -190 104 -215 117 -25 14 -74 41 -110 61 -69 37 -100 60 -100
74 0 15 27 8 86 -23z m1039 -131 c-2 -13 -7 -34 -10 -48 -3 -14 -12 -57 -22
-97 l-16 -72 -186 96 c-102 52 -190 99 -194 103 -8 7 69 15 248 26 55 4 101 7
102 8 1 0 20 2 42 4 39 2 41 1 36 -20z m1225 -313 c0 -8 -4 -15 -9 -15 -13 0
-22 16 -14 24 11 11 23 6 23 -9z"/>
<path d="M8582 10784 c10 -10 20 -16 22 -13 3 3 -5 11 -17 18 -21 13 -21 12
-5 -5z"/>
<path d="M8610 10747 c0 -2 15 -16 33 -33 l32 -29 -29 33 c-28 30 -36 37 -36
29z"/>
<path d="M8722 10616 c33 -43 56 -62 65 -59 13 5 12 8 -3 16 -28 16 -64 59
-57 70 3 6 1 7 -5 3 -6 -4 -17 2 -24 14 -7 11 -16 20 -20 20 -4 0 15 -29 44
-64z"/>
<path d="M7685 10130 c5 -8 19 -29 31 -47 13 -17 24 -36 24 -42 0 -15 52 -61
62 -55 4 3 11 -3 15 -13 9 -26 44 -63 60 -63 9 0 11 5 4 18 -5 9 -12 25 -15
34 -3 9 -23 28 -44 42 -21 13 -62 50 -91 83 -29 32 -50 51 -46 43z m165 -164
c0 -3 -4 -8 -10 -11 -5 -3 -10 -1 -10 4 0 6 5 11 10 11 6 0 10 -2 10 -4z"/>
<path d="M8265 9960 c-3 -6 1 -7 9 -4 18 7 21 14 7 14 -6 0 -13 -4 -16 -10z"/>
<path d="M7880 9950 c0 -5 5 -10 11 -10 5 0 7 5 4 10 -3 6 -8 10 -11 10 -2 0
-4 -4 -4 -10z"/>
<path d="M7660 9787 c0 -9 4 -18 9 -21 5 -4 8 1 7 9 -3 21 -16 31 -16 12z"/>
<path d="M7690 9754 c0 -11 5 -25 12 -32 9 -9 8 -21 -2 -51 -7 -23 -10 -60 -7
-87 5 -52 25 -75 142 -164 19 -14 19 -14 6 5 -8 11 -32 38 -52 60 -50 53 -61
83 -47 131 l10 38 34 -40 c18 -21 44 -54 56 -71 26 -37 48 -50 48 -28 0 8 -7
15 -16 15 -10 0 -14 6 -11 14 5 12 -40 74 -86 121 -9 9 -17 19 -17 23 -1 4
-16 25 -35 46 -28 32 -35 35 -35 20z"/>
<path d="M8411 9406 c-23 -28 4 -49 57 -43 65 6 225 -11 315 -34 56 -14 83
-17 90 -10 8 8 7 11 -3 11 -8 0 -26 12 -39 26 -16 16 -31 24 -44 20 -11 -3
-25 1 -33 8 -7 7 -23 13 -36 12 -13 -1 -26 2 -29 7 -3 5 -64 11 -135 14 -112
5 -131 4 -143 -11z"/>
<path d="M9410 9277 c-25 -12 -77 -23 -119 -26 -85 -7 -103 -24 -43 -40 85
-23 266 40 220 76 -9 7 -27 4 -58 -10z"/>
<path d="M8470 9228 c1 -34 44 -57 143 -78 68 -14 153 0 189 30 34 29 8 41
-45 23 -63 -22 -136 -18 -209 11 -74 30 -78 30 -78 14z"/>
<path d="M9491 9158 c-4 -13 -12 -39 -16 -58 -18 -84 -56 -139 -179 -253 -124
-114 -166 -160 -217 -233 -33 -48 -118 -217 -144 -286 -21 -56 -46 -68 -145
-68 -101 0 -176 18 -259 61 -91 48 -71 33 -485 349 -82 63 -122 88 -129 81
-18 -18 5 -50 190 -252 223 -246 316 -349 324 -362 14 -20 37 3 60 58 20 48
26 55 44 50 104 -32 141 -38 240 -39 165 -1 176 5 230 149 35 93 106 225 122
225 7 0 74 -14 150 -31 76 -17 149 -33 163 -35 51 -7 227 -66 285 -96 127 -65
237 -172 289 -281 31 -66 69 -205 176 -636 44 -178 78 -331 75 -340 -5 -14
-114 -90 -217 -151 -21 -12 -35 -27 -31 -33 3 -6 1 -7 -5 -3 -6 4 -48 -17 -94
-45 -102 -64 -177 -109 -183 -109 -3 0 -3 21 -1 48 3 26 7 151 11 277 3 127 8
310 11 408 4 122 2 177 -5 177 -6 0 -12 -9 -12 -20 -1 -11 -2 -23 -3 -27 -2
-7 -8 -84 -21 -253 -2 -30 -7 -102 -10 -160 -25 -471 -36 -682 -41 -785 -3
-66 -9 -196 -14 -290 -6 -93 -10 -177 -10 -185 0 -9 -49 -81 -110 -160 -69
-89 -110 -152 -110 -167 0 -29 32 -43 101 -43 49 0 49 0 43 -27 -17 -75 -73
-244 -86 -258 -4 -5 -8 -17 -8 -27 0 -10 -4 -18 -10 -18 -5 0 -10 -4 -10 -9 0
-15 -79 -140 -123 -196 -23 -28 -87 -105 -142 -171 -55 -65 -99 -125 -97 -131
2 -7 -3 -13 -11 -13 -14 0 -67 -54 -67 -68 0 -5 -9 -17 -20 -27 -26 -23 -26
-39 -1 -23 11 7 17 16 15 20 -3 4 0 8 6 8 7 0 31 21 53 47 23 26 92 99 153
162 l111 114 67 -112 c92 -152 151 -189 255 -161 37 10 200 113 387 247 71 50
81 68 143 253 23 69 45 130 49 136 4 5 66 21 137 33 163 29 206 47 228 94 9
19 17 49 17 66 0 23 9 39 34 62 45 39 78 108 75 153 -3 28 2 39 25 57 16 12
37 41 47 63 20 43 25 81 10 72 -5 -3 -8 2 -7 11 0 10 -21 32 -52 54 l-52 37
90 72 c50 40 95 80 100 90 12 22 -13 171 -36 216 l-16 31 92 117 c118 151 136
182 120 202 -11 13 -62 14 -381 12 l-368 -3 -35 -34 -36 -35 0 70 c-1 38 -3
94 -6 123 l-4 55 53 55 c30 31 57 63 60 72 5 15 -191 818 -226 929 -32 97 -81
181 -148 251 -148 153 -262 200 -706 294 -52 11 -83 23 -83 31 0 7 67 77 149
155 130 124 154 151 181 210 33 72 45 168 23 176 -7 3 -17 -6 -22 -19z m680
-2306 l2 -172 -27 -29 c-17 -18 -25 -34 -21 -42 5 -7 4 -10 -2 -6 -6 4 -38
-30 -72 -76 -33 -45 -66 -89 -73 -97 -7 -8 -73 -93 -145 -189 -113 -148 -133
-169 -133 -145 0 16 4 99 9 184 5 85 12 227 16 315 3 87 7 160 9 162 1 1 54
35 117 74 107 67 142 90 263 167 27 18 51 31 52 29 1 -1 4 -80 5 -175z m259
-97 c22 -26 -6 -46 -59 -43 -36 2 -47 7 -49 22 -2 10 2 22 10 27 22 14 85 10
98 -6z m360 -292 c24 -22 34 -43 45 -100 8 -39 12 -78 9 -87 -3 -8 -49 -49
-101 -90 l-96 -76 -33 21 c-19 11 -39 17 -45 13 -17 -10 2 21 55 94 48 65 55
69 87 51 11 -5 29 -7 40 -4 20 7 19 8 -10 26 -63 38 -88 120 -50 165 19 23 66
17 99 -13z m-492 -243 c63 -7 98 -17 145 -43 69 -37 274 -162 294 -179 18 -15
16 -54 -3 -84 -28 -41 -44 -44 -119 -22 -39 11 -80 22 -92 25 -13 3 -20 10
-17 15 3 5 -2 8 -12 6 -10 -2 -19 2 -19 8 0 6 -31 33 -70 59 -63 43 -81 50
-189 72 -143 28 -166 40 -166 88 0 37 7 44 54 56 45 10 100 10 194 -1z m-323
-255 c17 -2 37 -5 45 -9 8 -3 96 -17 195 -31 186 -27 392 -75 434 -102 19 -12
22 -21 18 -50 -9 -51 -52 -103 -85 -103 -15 1 -74 14 -132 30 -101 29 -464
119 -582 145 -109 25 -153 70 -111 117 17 19 25 20 103 13 47 -5 99 -9 115
-10z m190 -240 c406 -101 389 -96 393 -132 7 -71 -51 -120 -132 -110 -49 6
-569 217 -597 243 -31 28 -19 74 21 74 8 0 150 -34 315 -75z m-520 -105 c-20
-22 -31 -20 -22 5 4 8 14 15 23 15 16 0 16 -2 -1 -20z m214 -32 c100 -61 90
-56 218 -130 95 -56 99 -59 99 -93 0 -19 -3 -30 -6 -25 -3 5 -26 -47 -49 -115
-24 -69 -52 -136 -62 -149 -10 -13 -107 -83 -214 -155 -184 -124 -198 -131
-244 -131 -73 0 -112 40 -213 218 -22 38 -34 97 -19 88 10 -6 44 41 44 61 0 7
3 11 5 8 11 -11 98 140 92 161 -1 4 4 10 11 15 7 4 24 39 39 78 21 57 39 84
98 146 45 47 80 75 93 75 12 0 60 -24 108 -52z m200 -12 c80 -35 170 -74 199
-87 62 -27 56 -41 -20 -43 -48 -1 -63 5 -153 58 -55 32 -116 67 -135 78 -19
10 -46 28 -60 38 l-25 20 24 0 c13 0 90 -29 170 -64z m-25 33 c-6 -11 -24 -2
-24 11 0 5 7 7 15 4 8 -4 12 -10 9 -15z"/>
<path d="M8124 9115 c-13 -13 -37 -31 -52 -39 -24 -14 -25 -15 -6 -16 21 0 66
32 65 47 -1 4 4 8 11 8 6 0 13 6 16 13 6 19 -7 14 -34 -13z"/>
<path d="M8616 8632 c-33 -53 325 -106 397 -59 15 9 27 21 27 25 0 4 -67 7
-150 6 -82 -1 -150 1 -150 5 0 7 -80 31 -105 31 -7 0 -16 -4 -19 -8z"/>
<path d="M3165 5519 c7 -11 35 -12 35 -1 0 4 -9 8 -20 9 -11 1 -18 -2 -15 -8z"/>
<path d="M3210 5510 c0 -5 5 -10 10 -10 6 0 10 5 10 10 0 6 -4 10 -10 10 -5 0
-10 -4 -10 -10z"/>
<path d="M3242 5508 c3 -7 15 -14 27 -14 28 -2 21 20 -8 24 -16 3 -22 -1 -19
-10z"/>
<path d="M9364 4849 c-3 -6 -1 -16 5 -22 8 -8 11 -5 11 11 0 24 -5 28 -16 11z"/>
</g>
</svg>
